<mxfile host="app.diagrams.net" modified="2023-07-19T08:12:53.717Z" agent="Mozilla/5.0 (Windows NT 10.0; Win64; x64) AppleWebKit/537.36 (KHTML, like Gecko) Chrome/114.0.0.0 Safari/537.36" version="21.6.3" etag="jnoIB9ywTvaLRCkUBgQZ" type="github">
  <diagram name="Page-1" id="7a9x2GfTm8GXygs5rcgX">
    <mxGraphModel>
      <root>
        <mxCell id="0" />
        <mxCell id="1" parent="0" />
      </root>
    </mxGraphModel>
  </diagram>
</mxfile>
